<mxfile host="drawio-plugin" modified="2023-11-13T11:20:54.195Z" agent="5.0 (Windows NT 6.2; Win64; x64) AppleWebKit/537.36 (KHTML, like Gecko) Chrome/104.0.5112.102 Safari/537.36" version="20.5.3" etag="wYCxW7KPLHZpSGK2yl8g" type="embed"><diagram id="mH1unu-jKpcfOWnhQ2ms" name="Page-1"><mxGraphModel dx="834" dy="600" grid="1" gridSize="10" guides="1" tooltips="1" connect="1" arrows="1" fold="1" page="1" pageScale="1" pageWidth="850" pageHeight="1100" math="0" shadow="0"><root><mxCell id="0"/><mxCell id="1" parent="0"/><mxCell id="7" style="edgeStyle=orthogonalEdgeStyle;rounded=0;orthogonalLoop=1;jettySize=auto;html=1;entryX=0.5;entryY=1;entryDx=0;entryDy=0;strokeColor=#0A0A0A;endArrow=diamond;endFill=1;strokeWidth=3;exitX=0;exitY=0.5;exitDx=0;exitDy=0;" edge="1" parent="1" source="24" target="19"><mxGeometry relative="1" as="geometry"><mxPoint x="220" y="370" as="sourcePoint"/><mxPoint x="140" y="210" as="targetPoint"/></mxGeometry></mxCell><mxCell id="10" style="edgeStyle=orthogonalEdgeStyle;rounded=0;orthogonalLoop=1;jettySize=auto;html=1;entryX=0.5;entryY=1;entryDx=0;entryDy=0;strokeColor=#FAFAFA;strokeWidth=3;endArrow=diamond;endFill=1;exitX=1;exitY=0.5;exitDx=0;exitDy=0;" edge="1" parent="1" source="24" target="23"><mxGeometry relative="1" as="geometry"><mxPoint x="340" y="370" as="sourcePoint"/><mxPoint x="469" y="211.01999999999998" as="targetPoint"/></mxGeometry></mxCell><mxCell id="6" style="edgeStyle=orthogonalEdgeStyle;rounded=0;orthogonalLoop=1;jettySize=auto;html=1;entryX=1;entryY=0.5;entryDx=0;entryDy=0;endArrow=diamond;endFill=1;strokeColor=#0A0A0A;strokeWidth=3;exitX=0;exitY=0.5;exitDx=0;exitDy=0;" edge="1" parent="1" source="23" target="19"><mxGeometry relative="1" as="geometry"><mxPoint x="400" y="180" as="sourcePoint"/><mxPoint x="200" y="180" as="targetPoint"/></mxGeometry></mxCell><mxCell id="8" value="Adhère" style="text;html=1;strokeColor=none;fillColor=none;align=center;verticalAlign=middle;whiteSpace=wrap;rounded=0;" vertex="1" parent="1"><mxGeometry x="270" y="150" width="60" height="30" as="geometry"/></mxCell><mxCell id="9" value="Possède" style="text;html=1;strokeColor=none;fillColor=none;align=center;verticalAlign=middle;whiteSpace=wrap;rounded=0;" vertex="1" parent="1"><mxGeometry x="140" y="270" width="60" height="30" as="geometry"/></mxCell><mxCell id="11" value="Emprunte" style="text;html=1;strokeColor=none;fillColor=none;align=center;verticalAlign=middle;whiteSpace=wrap;rounded=0;" vertex="1" parent="1"><mxGeometry x="400" y="280" width="60" height="30" as="geometry"/></mxCell><mxCell id="17" style="edgeStyle=orthogonalEdgeStyle;rounded=0;orthogonalLoop=1;jettySize=auto;html=1;strokeColor=#FAFAFA;strokeWidth=3;endArrow=block;endFill=1;entryX=0.5;entryY=1;entryDx=0;entryDy=0;exitX=0.5;exitY=0;exitDx=0;exitDy=0;" edge="1" parent="1" source="25" target="24"><mxGeometry relative="1" as="geometry"><mxPoint x="100" y="470" as="sourcePoint"/><mxPoint x="280" y="400" as="targetPoint"/></mxGeometry></mxCell><mxCell id="15" style="edgeStyle=orthogonalEdgeStyle;rounded=0;orthogonalLoop=1;jettySize=auto;html=1;entryX=0.5;entryY=1;entryDx=0;entryDy=0;strokeColor=#FAFAFA;strokeWidth=3;endArrow=block;endFill=1;exitX=0.5;exitY=0;exitDx=0;exitDy=0;" edge="1" parent="1" source="26" target="24"><mxGeometry relative="1" as="geometry"><mxPoint x="280" y="550" as="sourcePoint"/><mxPoint x="280" y="400" as="targetPoint"/></mxGeometry></mxCell><mxCell id="18" style="edgeStyle=orthogonalEdgeStyle;rounded=0;orthogonalLoop=1;jettySize=auto;html=1;entryX=0.5;entryY=1;entryDx=0;entryDy=0;strokeColor=#FAFAFA;strokeWidth=3;endArrow=block;endFill=1;exitX=0.5;exitY=0;exitDx=0;exitDy=0;" edge="1" parent="1" source="27" target="24"><mxGeometry relative="1" as="geometry"><mxPoint x="440" y="550" as="sourcePoint"/><mxPoint x="280" y="400" as="targetPoint"/></mxGeometry></mxCell><mxCell id="19" value="Bibliotheque" style="swimlane;fontStyle=0;childLayout=stackLayout;horizontal=1;startSize=26;fillColor=none;horizontalStack=0;resizeParent=1;resizeParentMax=0;resizeLast=0;collapsible=1;marginBottom=0;html=1;" vertex="1" parent="1"><mxGeometry x="50" y="132" width="140" height="78" as="geometry"/></mxCell><mxCell id="23" value="Adherent" style="swimlane;fontStyle=0;childLayout=stackLayout;horizontal=1;startSize=26;fillColor=none;horizontalStack=0;resizeParent=1;resizeParentMax=0;resizeLast=0;collapsible=1;marginBottom=0;html=1;" vertex="1" parent="1"><mxGeometry x="410" y="145" width="140" height="52" as="geometry"/></mxCell><mxCell id="24" value="Ressources" style="swimlane;fontStyle=0;childLayout=stackLayout;horizontal=1;startSize=26;fillColor=none;horizontalStack=0;resizeParent=1;resizeParentMax=0;resizeLast=0;collapsible=1;marginBottom=0;html=1;" vertex="1" parent="1"><mxGeometry x="230" y="310" width="140" height="52" as="geometry"/></mxCell><mxCell id="25" value="Livres" style="swimlane;fontStyle=0;childLayout=stackLayout;horizontal=1;startSize=26;fillColor=none;horizontalStack=0;resizeParent=1;resizeParentMax=0;resizeLast=0;collapsible=1;marginBottom=0;html=1;" vertex="1" parent="1"><mxGeometry x="60" y="490" width="140" height="52" as="geometry"/></mxCell><mxCell id="26" value="Jeux" style="swimlane;fontStyle=0;childLayout=stackLayout;horizontal=1;startSize=26;fillColor=none;horizontalStack=0;resizeParent=1;resizeParentMax=0;resizeLast=0;collapsible=1;marginBottom=0;html=1;" vertex="1" parent="1"><mxGeometry x="230" y="490" width="140" height="52" as="geometry"/></mxCell><mxCell id="27" value="CDs" style="swimlane;fontStyle=0;childLayout=stackLayout;horizontal=1;startSize=26;fillColor=none;horizontalStack=0;resizeParent=1;resizeParentMax=0;resizeLast=0;collapsible=1;marginBottom=0;html=1;" vertex="1" parent="1"><mxGeometry x="410" y="490" width="140" height="52" as="geometry"/></mxCell></root></mxGraphModel></diagram></mxfile>